PathFileType	4	(X/Y/Z)	pose_F01_0-92.trc
DataRate	CameraRate	NumFrames	NumMarkers	Units	OrigDataRate	OrigDataStartFrame	OrigNumFrames
30	30	6	21	m	30	26	92
Frame#	Time	CHip			RHip			RKnee			RAnkle			RBigToe			RSmallToe			RHeel			LHip			LKnee			LAnkle			LBigToe			LSmallToe			LHeel			Neck			Nose			RShoulder			RElbow			RWrist			LShoulder			LElbow			LWrist			
		X1	Y1	Z1	X2	Y2	Z2	X3	Y3	Z3	X4	Y4	Z4	X5	Y5	Z5	X6	Y6	Z6	X7	Y7	Z7	X8	Y8	Z8	X9	Y9	Z9	X10	Y10	Z10	X11	Y11	Z11	X12	Y12	Z12	X13	Y13	Z13	X14	Y14	Z14	X15	Y15	Z15	X16	Y16	Z16	X17	Y17	Z17	X18	Y18	Z18	X19	Y19	Z19	X20	Y20	Z20	X21	Y21	Z21	
26	0.8666666666666667	-0.16357972862202474	1.86244690524777	-0.5069750604953092	-0.1733524811607384	1.8582088668058472	-0.44666322655881086	-0.22236704918623074	1.7185738626221017	-0.4501412719563658													-0.15169655600340326	1.8646439856424444	-0.5635640899007187	-0.1687170427941966	1.713728778083117	-0.5574757190245134	-0.12761450175150219	1.590528399227168	-0.5261571751520571	-0.15361288926953642	1.55888798846654	-0.559720167750445	-0.1387640653510768	1.563966462574237	-0.5758557862502526	-0.12292780791202611	1.58911276099447	-0.5227305403845361	-0.18580842838971676	2.0179339700590977	-0.5252175927534359	-0.23818940025482785	2.0432619063371695	-0.5346909609165724	-0.19763646095576937	2.0117980446196975	-0.44843049724792444	-0.21825206443092166	1.9427270729606514	-0.42099652689116085	-0.23026732567478184	2.0112357358169612	-0.46705942059079836	-0.17644337812531222	2.021939444718955	-0.5975147910354508	-1.4542081307896588	1.8725845822164604	0.6684107861516201	-0.26888187060611024	1.8984134519318343	-0.6740705901054583
27	0.9	-0.1635225474659824	1.866381504438368	-0.5077082298164958	-0.1723144817535722	1.8647159583107331	-0.44449256613598637	-0.21711684517207502	1.7202587417707782	-0.4427349361921478													-0.14762268562512623	1.8684269703090108	-0.568847074535109	-0.1662924302860261	1.7178044875897889	-0.5604430233765556	-0.12551414520980733	1.5903379143756529	-0.5281964045288191	-0.15253749225008587	1.5584673307533212	-0.5563509171671979	-0.13804107766258739	1.5651521831609876	-0.572229314020373	-0.12096446740436205	1.5870973116873408	-0.524262795712378	-0.18263735611996626	2.0194159688934104	-0.5242264541859041	-0.23205097356309431	2.0503412632799574	-0.5345286785784221	-0.19384519449841123	2.016636595074729	-0.44563887444876094	-0.21757065646369808	1.9460961819544937	-0.42770945456997117	-0.22922156538325475	2.011750652197375	-0.47308436841384033	-0.16918298247265756	2.022697367512357	-0.6012402974303046	-1.4608909713928993	1.8724148977294353	0.6817084403680139	-0.2575137101776351	1.9052600548884708	-0.666075838840736
28	0.9333333333333333	-0.16061665622449395	1.8686941762315337	-0.5158646327626678	-0.17068672054722023	1.8656888433180854	-0.4470474913888405	-0.21194913717166028	1.7190010844581647	-0.443561087627095													-0.14565342798969572	1.8710864346585403	-0.5718380088230044	-0.16237725172091344	1.7182510496488552	-0.5561765960225341	-0.12546559137287297	1.590476781269102	-0.5283410631584309	-0.15253904073592894	1.5585865994978287	-0.5564462864285455	-0.13826461768124487	1.5637571553962335	-0.5717248890056388	-0.1215051959642038	1.5880326947638248	-0.528190403302785	-0.17758449727796397	2.021825604967834	-0.526073382345631	-0.22501479319819775	2.052640788606181	-0.5301055557103995	-0.18671470537600754	2.0216582346092284	-0.4495530558706832	-0.20688872822734178	1.9472260628040745	-0.4359685079996338	-0.22602813401334096	2.014171820286032	-0.479942901239961	-0.16494883515995243	2.0242403548563788	-0.6060964094077202	-1.4904591230013027	1.8763501901884145	0.7319853689887792	-0.25458910414195535	1.906067010872793	-0.6653329238917379
29	0.9666666666666667	-0.1574343999764576	1.86975581044223	-0.5152502757745744	-0.16855382611350198	1.8645804576882559	-0.4491828842830734	-0.2097595690651511	1.7211265009652288	-0.44621091204950997													-0.14136868893705362	1.8725176165699722	-0.5764559263440526	-0.15916559775463443	1.7195436971690405	-0.555596939650596	-0.12452428690711283	1.590114433805946	-0.525058200407111	-0.15483640179950675	1.5569355366694313	-0.5535876292148202	-0.13811785713452424	1.5624009896881346	-0.5719240866967694	-0.12078150166330384	1.5864310199817095	-0.5243228014510793	-0.17151374141912193	2.0218274397036704	-0.532718618763136	-0.22091079996434887	2.0560595156961625	-0.5263554606173837	-0.18270604579620114	2.0219273697966385	-0.4539639441782548	-0.20460962320276554	1.9475210695484182	-0.43784439720630275	-0.2134152748342132	2.010675237446861	-0.4816862789002454	-0.15990556517704424	2.0237202536405503	-0.6076654806348698	-1.498998997458716	1.8767357581659634	0.7469294223807629	-0.25218342023198215	1.9077828251254783	-0.6674864284151003
30	1.0	-0.15130637264921057	1.8669012718328113	-0.5214138791494483	-0.16252900130673104	1.8635384145524887	-0.45558813861483444	-0.20472766840371756	1.723380453381438	-0.44767328140117085													-0.13917306719893152	1.869103877492322	-0.5782668179115631	-0.16010191526358894	1.7208782604702637	-0.5503842005864213	-0.12449525026010974	1.5901189771151676	-0.5250228086709088	-0.15495491926026744	1.5573078902644382	-0.553545314621255	-0.14059500943761294	1.5649922877048514	-0.5690851331477025	-0.12074241342253214	1.5863919988134765	-0.5243489684449155	-0.16453184026966372	2.0218951967256062	-0.5364477435849493	-0.21492550281699563	2.05687195191118	-0.5245073671626599	-0.1759004302079529	2.020882865012283	-0.45749223430085584	-0.2016167634877791	1.9496017140634954	-0.43728216579722945	-0.2092040647987352	2.0128588332449207	-0.4774678338419332	-0.15353053041850206	2.024633056735487	-0.6143742132072629	-1.5100028820208669	1.8786968018325427	0.7653712947257811	-0.24545260284794554	1.912874639363692	-0.666327183950179
31	1.0333333333333334	-0.1489793315224684	1.8671332051540048	-0.5237700158428965	-0.15798687842116355	1.8636400171453689	-0.4601156494727584	-0.20079929293028972	1.7251642350021446	-0.4431961715577968													-0.13868650861470544	1.8675476173572207	-0.5782610244509649	-0.15587037976048645	1.7205023215811919	-0.5548081151467543	-0.12472387373041571	1.5885219311277168	-0.5244064101072764	-0.1549580625728398	1.5573959329826752	-0.5535095622851671	-0.1404120553640305	1.5637899997737155	-0.5693571090052777	-0.12077168218154014	1.5838665231172397	-0.5237057449824244	-0.16230798954117134	2.022327825214133	-0.5386333225476542	-0.20693398934969187	2.0580576770072425	-0.5244889178430213	-0.16903743629184745	2.020602026553697	-0.4604573349237786	-0.19650473820069206	1.9526433715396792	-0.4295921925397684	-0.20595529241119667	2.0160170070455297	-0.4763287228917889	-0.14840441864494958	2.025436514337731	-0.6158280664249192	-0.18122847092862365	1.9692901494720116	-0.641419748341145	-0.2395644884681012	1.9153559186219642	-0.6563826141519797
